<?xml version="1.0" encoding="UTF-8"?>
<svg width="265px" height="274px" viewBox="-45 -45 265 274" version="1.1" xmlns="http://www.w3.org/2000/svg" xmlns:xlink="http://www.w3.org/1999/xlink">
    <!-- Generator: Sketch 61 (89581) - https://sketch.com -->
    <title>D-Initiale</title>
    <desc>Created with Sketch.</desc>
    <g id="Page-1" stroke="none" stroke-width="1" fill="none" fill-rule="evenodd">
        <g id="D-Initiale" fill="#FFFFFF" fill-rule="nonzero">
            <path d="M164.3,42.8 C159.9,34.8 153,24.6 130.1,11.8 C111.2,1.3 81,0.9 81,0.9 L0.3,0.9 L0.3,142.9 L109.4,34.5 C109.4,34.5 125.5,36.4 130.7,47.4 L0.3,182.3 L87.4,182.3 C87.4,182.3 126.3,188.4 160.3,142.3 C189.6,98.9 170.7,55.1 164.3,42.8 Z M24.9,79.3 L24.9,28.6 L79.9,28.6 L24.9,79.3 Z M145.8,111.9 C145.8,111.9 140.7,130.4 121.9,144.8 C103.1,159.2 86.4,157.1 86.4,157.1 L61.8,157.1 L147.2,70.3 C152.3,93.1 145.8,111.9 145.8,111.9 Z" id="Shape"></path>
        </g>
    </g>
</svg>